<svg xmlns="http://www.w3.org/2000/svg" viewBox="0 0 560 270" role="img" aria-labelledby="t d"><title id="t">Paradise Lawn Care logo</title><desc id="d">Green palm tree and Paradise Lawn Care lettering with phone number.</desc><g fill="none" stroke="#2f7d32" stroke-linecap="round"><path stroke-width="16" d="M115 220c22-62 20-115 4-163"/><path stroke-width="11" d="M120 65C83 45 55 48 34 63M121 65c-8-35 4-53 22-62M123 67c29-30 58-33 88-18M123 68c42 2 68 17 83 42M119 68c-31 5-55 22-70 50"/></g><text x="218" y="105" font-family="Georgia,serif" font-size="62" font-weight="700" fill="#2f7d32">PARADISE</text><text x="221" y="151" font-family="Arial,sans-serif" font-size="29" font-weight="700" letter-spacing="5" fill="#2f7d32">LAWN CARE, LLC</text><path d="M214 170h320" stroke="#2f7d32" stroke-width="4"/><text x="223" y="208" font-family="Arial,sans-serif" font-size="24" font-weight="700" fill="#2f7d32">772-323-9401</text><path d="M20 232c65-24 130-17 194 0 80 22 167 15 326-4" stroke="#4b9b45" stroke-width="10" fill="none"/><path d="M20 246c82-18 155-4 217 7 88 15 183 8 303-8" stroke="#70b95d" stroke-width="8" fill="none"/></svg>